<svg width="0" height="0" class="hidden">
  <symbol fill="none" xmlns="http://www.w3.org/2000/svg" viewBox="0 0 24 24" id="01d">
    <path d="M6.0523 4.60639L5.66212 4.21461C5.27194 3.82283 4.64166 3.83288 4.26148 4.21461L4.25148 4.22466C3.8613 4.61644 3.8613 5.24931 4.25148 5.63105L4.64166 6.02283C5.03183 6.41461 5.65211 6.41461 6.04229 6.02283L6.0523 6.01278C6.44247 5.63105 6.44247 4.98813 6.0523 4.60639ZM3.01091 10.9954H1.99045C1.4402 10.9954 1 11.4374 1 11.99V12C1 12.5525 1.4402 12.9945 1.99045 12.9945H3.00091C3.56116 13.0046 4.00136 12.5626 4.00136 12.01V12C4.00136 11.4374 3.56116 10.9954 3.01091 10.9954ZM12.015 1H12.005C11.4447 1 11.0045 1.44201 11.0045 1.99452V2.9589C11.0045 3.51142 11.4447 3.95342 11.995 3.95342H12.005C12.5653 3.96347 13.0055 3.52146 13.0055 2.96895V1.99452C13.0055 1.44201 12.5653 1 12.015 1ZM19.7585 4.22466C19.3683 3.83288 18.7381 3.83288 18.3479 4.21461L17.9577 4.60639C17.5675 4.99817 17.5675 5.63105 17.9577 6.01278L17.9677 6.02283C18.3579 6.41461 18.9882 6.41461 19.3684 6.02283L19.7585 5.63105C20.1487 5.23927 20.1487 4.61644 19.7585 4.22466ZM17.9477 19.3936L18.3379 19.7854C18.7281 20.1772 19.3583 20.1772 19.7485 19.7854C20.1387 19.3936 20.1387 18.7607 19.7485 18.3689L19.3583 17.9772C18.9682 17.5854 18.3379 17.5954 17.9577 17.9772C17.5575 18.379 17.5575 19.0018 17.9477 19.3936ZM20.0086 11.99V12C20.0086 12.5525 20.4488 12.9945 20.9991 12.9945H22.0096C22.5598 12.9945 23 12.5525 23 12V11.99C23 11.4374 22.5598 10.9954 22.0096 10.9954H20.9991C20.4488 10.9954 20.0086 11.4374 20.0086 11.99ZM12.005 5.9726C8.6935 5.9726 6.00227 8.67489 6.00227 12C6.00227 15.3251 8.6935 18.0274 12.005 18.0274C15.3165 18.0274 18.0077 15.3251 18.0077 12C18.0077 8.67489 15.3165 5.9726 12.005 5.9726ZM11.995 23H12.005C12.5553 23 12.9955 22.558 12.9955 22.0055V21.0411C12.9955 20.4886 12.5553 20.0466 12.005 20.0466H11.995C11.4447 20.0466 11.0045 20.4886 11.0045 21.0411V22.0055C11.0045 22.558 11.4447 23 11.995 23ZM4.25148 19.7753C4.64166 20.1671 5.27194 20.1671 5.66212 19.7753L6.0523 19.3836C6.44247 18.9918 6.43247 18.3589 6.0523 17.9772L6.04229 17.9671C5.65211 17.5753 5.02183 17.5753 4.63165 17.9671L4.24147 18.3589C3.8613 18.7607 3.8613 19.3836 4.25148 19.7753Z" fill="white"></path>
  </symbol>
  <symbol fill="none" xmlns="http://www.w3.org/2000/svg" viewBox="0 0 24 24" id="02d">
    <path d="M3.36667 4.39333L3.10667 4.13333C2.84667 3.87333 2.42667 3.88 2.17333 4.13333L2.16667 4.14C1.90667 4.4 1.90667 4.82 2.16667 5.07333L2.42667 5.33333C2.68667 5.59333 3.1 5.59333 3.36 5.33333L3.36667 5.32667C3.62667 5.07333 3.62667 4.64667 3.36667 4.39333Z" fill="white"></path>
    <path d="M1.34 8.63333H0.66C0.293333 8.63333 0 8.92667 0 9.29333V9.3C0 9.66667 0.293333 9.96 0.66 9.96H1.33333C1.70667 9.96667 2 9.67333 2 9.30667V9.3C2 8.92667 1.70667 8.63333 1.34 8.63333Z" fill="white"></path>
    <path d="M7.34 2H7.33333C6.96 2 6.66667 2.29333 6.66667 2.66V3.3C6.66667 3.66667 6.96 3.96 7.32667 3.96H7.33333C7.70667 3.96667 8 3.67333 8 3.30667V2.66C8 2.29333 7.70667 2 7.34 2Z" fill="white"></path>
    <path d="M12.5 4.14C12.24 3.88 11.82 3.88 11.56 4.13333L11.3 4.39333C11.04 4.65333 11.04 5.07333 11.3 5.32667L11.3067 5.33333C11.5667 5.59333 11.9867 5.59333 12.24 5.33333L12.5 5.07333C12.76 4.81333 12.76 4.4 12.5 4.14Z" fill="white"></path>
    <path d="M7.33333 5.3C5.12667 5.3 3.33333 7.09333 3.33333 9.3C3.33333 10.7304 4.08683 11.9871 5.21798 12.6942C5.75923 11.1263 7.24809 10 9 10C9.06894 10 9.13748 10.0017 9.20557 10.0052C9.49435 8.98028 10.0727 8.07673 10.8468 7.38847C10.1679 6.14492 8.84799 5.3 7.33333 5.3Z" fill="white"></path>
    <path d="M2.16667 14.46C2.42667 14.72 2.84667 14.72 3.10667 14.46L3.36667 14.2C3.62667 13.94 3.62 13.52 3.36667 13.2667L3.36 13.26C3.1 13 2.68 13 2.42 13.26L2.16 13.52C1.90667 13.7867 1.90667 14.2 2.16667 14.46Z" fill="white"></path>
    <path d="M7 21H20C22.2091 21 24 19.2091 24 17C24 15.1238 22.7083 13.5494 20.9657 13.1174C20.9884 12.9147 21 12.7087 21 12.5C21 9.46243 18.5376 7 15.5 7C12.9806 7 10.8568 8.69403 10.2056 11.0052C10.1375 11.0017 10.0689 11 10 11C7.79086 11 6 12.7909 6 15C6 15.0568 6.00118 15.1133 6.00352 15.1695C4.83649 15.5803 4 16.6925 4 18C4 19.6569 5.34315 21 7 21Z" fill="white"></path>
  </symbol>
  <symbol fill="none" xmlns="http://www.w3.org/2000/svg" viewBox="0 0 24 24" id="01n">
    <path d="M17.7499 4.08998L15.2199 6.02998L16.1299 9.08998L13.4999 7.27998L10.8699 9.08998L11.7799 6.02998L9.24995 4.08998L12.4399 3.99998L13.4999 0.999977L14.5599 3.99998L17.7499 4.08998ZM21.2499 11L19.6099 12.25L20.1999 14.23L18.4999 13.06L16.7999 14.23L17.3899 12.25L15.7499 11L17.8099 10.95L18.4999 8.99998L19.1899 10.95L21.2499 11ZM18.9699 15.95C19.7999 15.87 20.6899 17.05 20.1599 17.8C19.8399 18.25 19.4999 18.67 19.0799 19.07C15.1699 23 8.83995 23 4.93995 19.07C1.02995 15.17 1.02995 8.82998 4.93995 4.92998C5.33995 4.52998 5.75995 4.16998 6.20995 3.84998C6.95995 3.31998 8.13995 4.20998 8.05995 5.03998C7.78995 7.89998 8.74995 10.87 10.9499 13.06C13.1399 15.26 16.0999 16.22 18.9699 15.95Z" fill="white"></path>
  </symbol>
  <symbol fill="none" xmlns="http://www.w3.org/2000/svg" viewBox="0 0 24 24" id="02n">
    <path d="M5.00352 14.1695C4.78883 14.245 4.58533 14.3444 4.39616 14.4643C3.5541 14.1159 2.76537 13.5975 2.0818 12.9093C-0.693935 10.1429 -0.693935 5.64576 2.0818 2.87938C2.36577 2.59565 2.66393 2.34029 2.98339 2.11331C3.51582 1.73737 4.35351 2.36867 4.29672 2.95741C4.10504 4.98608 4.78655 7.09278 6.34835 8.64621C6.94443 9.24452 7.62087 9.71354 8.34325 10.0537C6.44656 10.3669 5 12.0145 5 14C5 14.0568 5.00118 14.1133 5.00352 14.1695Z" fill="white"></path>
    <path d="M10.5332 5.4617L11.06 7.20828C11.0081 7.24998 10.9569 7.2926 10.9065 7.33612L9.37123 6.29434L7.59443 7.5L8.20922 5.4617L6.49998 4.16944L8.65511 4.10949L9.37123 2.11116L10.0874 4.10949L12.2425 4.16944L10.5332 5.4617Z" fill="white"></path>
    <path d="M16.6077 4.27602L17.7157 3.44339L16.324 3.41008L15.8578 2.11116L15.3917 3.41008L14 3.44339L15.1079 4.27602L14.7093 5.59493L15.8578 4.81558L17.0063 5.59493L16.6077 4.27602Z" fill="white"></path>
    <path d="M7 21H20C22.2091 21 24 19.2091 24 17C24 15.1238 22.7083 13.5494 20.9657 13.1174C20.9884 12.9147 21 12.7087 21 12.5C21 9.46243 18.5376 7 15.5 7C12.9806 7 10.8568 8.69403 10.2056 11.0052C10.1375 11.0017 10.0689 11 10 11C7.79086 11 6 12.7909 6 15C6 15.0568 6.00118 15.1133 6.00352 15.1695C4.83649 15.5803 4 16.6925 4 18C4 19.6569 5.34314 21 7 21Z" fill="white"></path>
  </symbol>
  <symbol fill="none" xmlns="http://www.w3.org/2000/svg" viewBox="0 0 24 24" id="03d">
    <path d="M19 20H3C1.34315 20 0 18.6568 0 17C0 15.6762 0.857438 14.5526 2.04725 14.1544C2.01612 13.9408 2 13.7223 2 13.5C2 11.0147 4.01472 8.99999 6.5 8.99999C6.72514 8.99999 6.94642 9.01653 7.16268 9.04844C7.82213 6.15736 10.4091 3.99999 13.5 3.99999C16.9547 3.99999 19.7799 6.69514 19.9877 10.0975C22.2761 10.5561 24 12.5767 24 15C24 17.7614 21.7614 20 19 20Z" fill="white"></path>
  </symbol>
  <symbol fill="none" xmlns="http://www.w3.org/2000/svg" viewBox="0 0 24 24" id="03n">
    <path d="M19 20H3C1.34315 20 0 18.6568 0 17C0 15.6762 0.857438 14.5526 2.04725 14.1544C2.01612 13.9408 2 13.7223 2 13.5C2 11.0147 4.01472 8.99999 6.5 8.99999C6.72514 8.99999 6.94642 9.01653 7.16268 9.04844C7.82213 6.15736 10.4091 3.99999 13.5 3.99999C16.9547 3.99999 19.7799 6.69514 19.9877 10.0975C22.2761 10.5561 24 12.5767 24 15C24 17.7614 21.7614 20 19 20Z" fill="white"></path>
  </symbol>
  <symbol fill="none" xmlns="http://www.w3.org/2000/svg" viewBox="0 0 24 24" id="04d">
    <path d="M5 17H18C20.2091 17 22 15.2091 22 13C22 11.1238 20.7083 9.54938 18.9657 9.11736C18.9884 8.9147 19 8.70871 19 8.5C19 5.46243 16.5376 3 13.5 3C10.9806 3 8.85678 4.69403 8.20557 7.00519C8.13748 7.00174 8.06894 7 8 7C5.79086 7 4 8.79086 4 11C4 11.0568 4.00118 11.1133 4.00352 11.1695C2.83649 11.5803 2 12.6925 2 14C2 15.6569 3.34315 17 5 17Z" fill="white"></path>
    <path d="M5 19C4.44772 19 4 19.4477 4 20C4 20.5523 4.44772 21 5 21H19C19.5523 21 20 20.5523 20 20C20 19.4477 19.5523 19 19 19H5Z" fill="white"></path>
  </symbol>
  <symbol fill="none" xmlns="http://www.w3.org/2000/svg" viewBox="0 0 24 24" id="04n">
    <path d="M5 17H18C20.2091 17 22 15.2091 22 13C22 11.1238 20.7083 9.54938 18.9657 9.11736C18.9884 8.9147 19 8.70871 19 8.5C19 5.46243 16.5376 3 13.5 3C10.9806 3 8.85678 4.69403 8.20557 7.00519C8.13748 7.00174 8.06894 7 8 7C5.79086 7 4 8.79086 4 11C4 11.0568 4.00118 11.1133 4.00352 11.1695C2.83649 11.5803 2 12.6925 2 14C2 15.6569 3.34315 17 5 17Z" fill="white"></path>
    <path d="M5 19C4.44772 19 4 19.4477 4 20C4 20.5523 4.44772 21 5 21H19C19.5523 21 20 20.5523 20 20C20 19.4477 19.5523 19 19 19H5Z" fill="white"></path>
  </symbol>
  <symbol fill="none" xmlns="http://www.w3.org/2000/svg" viewBox="0 0 24 24" id="09d">
    <path d="M5 17H18C20.2091 17 22 15.2091 22 13C22 11.1238 20.7083 9.54938 18.9657 9.11736C18.9884 8.9147 19 8.70871 19 8.5C19 5.46243 16.5376 3 13.5 3C10.9806 3 8.85678 4.69403 8.20557 7.00519C8.13748 7.00174 8.06894 7 8 7C5.79086 7 4 8.79086 4 11C4 11.0568 4.00118 11.1133 4.00352 11.1695C2.83649 11.5803 2 12.6925 2 14C2 15.6569 3.34315 17 5 17Z" fill="white"></path>
    <path d="M7.41459 18C7.1605 18 6.92822 18.1436 6.81459 18.3708L5.48541 21.0292C5.2624 21.4752 5.58673 22 6.08541 22C6.3395 22 6.57178 21.8564 6.68541 21.6292L8.01459 18.9708C8.2376 18.5248 7.91327 18 7.41459 18Z" fill="white"></path>
    <path d="M10.4146 18C10.9133 18 11.2376 18.5248 11.0146 18.9708L9.68541 21.6292C9.57178 21.8564 9.3395 22 9.08541 22C8.58673 22 8.2624 21.4752 8.48541 21.0292L9.81459 18.3708C9.92822 18.1436 10.1605 18 10.4146 18Z" fill="white"></path>
    <path d="M16.4146 18C16.9133 18 17.2376 18.5248 17.0146 18.9708L15.6854 21.6292C15.5718 21.8564 15.3395 22 15.0854 22C14.5867 22 14.2624 21.4752 14.4854 21.0292L15.8146 18.3708C15.9282 18.1436 16.1605 18 16.4146 18Z" fill="white"></path>
    <path d="M13.4146 18C13.9133 18 14.2376 18.5248 14.0146 18.9708L12.6854 21.6292C12.5718 21.8564 12.3395 22 12.0854 22C11.5867 22 11.2624 21.4752 11.4854 21.0292L12.8146 18.3708C12.9282 18.1436 13.1605 18 13.4146 18Z" fill="white"></path>
  </symbol>
  <symbol fill="none" xmlns="http://www.w3.org/2000/svg" viewBox="0 0 24 24" id="09n">
    <path d="M5 17H18C20.2091 17 22 15.2091 22 13C22 11.1238 20.7083 9.54938 18.9657 9.11736C18.9884 8.9147 19 8.70871 19 8.5C19 5.46243 16.5376 3 13.5 3C10.9806 3 8.85678 4.69403 8.20557 7.00519C8.13748 7.00174 8.06894 7 8 7C5.79086 7 4 8.79086 4 11C4 11.0568 4.00118 11.1133 4.00352 11.1695C2.83649 11.5803 2 12.6925 2 14C2 15.6569 3.34315 17 5 17Z" fill="white"></path>
    <path d="M7.41459 18C7.1605 18 6.92822 18.1436 6.81459 18.3708L5.48541 21.0292C5.2624 21.4752 5.58673 22 6.08541 22C6.3395 22 6.57178 21.8564 6.68541 21.6292L8.01459 18.9708C8.2376 18.5248 7.91327 18 7.41459 18Z" fill="white"></path>
    <path d="M10.4146 18C10.9133 18 11.2376 18.5248 11.0146 18.9708L9.68541 21.6292C9.57178 21.8564 9.3395 22 9.08541 22C8.58673 22 8.2624 21.4752 8.48541 21.0292L9.81459 18.3708C9.92822 18.1436 10.1605 18 10.4146 18Z" fill="white"></path>
    <path d="M16.4146 18C16.9133 18 17.2376 18.5248 17.0146 18.9708L15.6854 21.6292C15.5718 21.8564 15.3395 22 15.0854 22C14.5867 22 14.2624 21.4752 14.4854 21.0292L15.8146 18.3708C15.9282 18.1436 16.1605 18 16.4146 18Z" fill="white"></path>
    <path d="M13.4146 18C13.9133 18 14.2376 18.5248 14.0146 18.9708L12.6854 21.6292C12.5718 21.8564 12.3395 22 12.0854 22C11.5867 22 11.2624 21.4752 11.4854 21.0292L12.8146 18.3708C12.9282 18.1436 13.1605 18 13.4146 18Z" fill="white"></path>
  </symbol>
  <symbol fill="none" xmlns="http://www.w3.org/2000/svg" viewBox="0 0 24 24" id="10d">
    <g clip-path="url(#clip0_2_3066)">
      <path d="M3.10667 2.13333L3.36667 2.39333C3.62667 2.64667 3.62667 3.07333 3.36667 3.32667L3.36 3.33333C3.1 3.59333 2.68667 3.59333 2.42667 3.33333L2.16667 3.07333C1.90667 2.82 1.90667 2.4 2.16667 2.14L2.17333 2.13333C2.42667 1.88 2.84667 1.87333 3.10667 2.13333Z" fill="white"></path>
      <path d="M0.66 6.63333H1.34C1.70667 6.63333 2 6.92667 2 7.3V7.30667C2 7.67333 1.70667 7.96667 1.33333 7.96H0.66C0.293333 7.96 0 7.66667 0 7.3V7.29333C0 6.92667 0.293333 6.63333 0.66 6.63333Z" fill="white"></path>
      <path d="M7.33333 0H7.34C7.70667 0 8 0.293333 8 0.66V1.30667C8 1.67333 7.70667 1.96667 7.33333 1.96H7.32667C6.96 1.96 6.66667 1.66667 6.66667 1.3V0.66C6.66667 0.293333 6.96 0 7.33333 0Z" fill="white"></path>
      <path d="M11.56 2.13333C11.82 1.88 12.24 1.88 12.5 2.14C12.76 2.4 12.76 2.81333 12.5 3.07333L12.24 3.33333C11.9867 3.59333 11.5667 3.59333 11.3067 3.33333L11.3 3.32667C11.04 3.07333 11.04 2.65333 11.3 2.39333L11.56 2.13333Z" fill="white"></path>
      <path d="M3.33333 7.3C3.33333 5.09333 5.12667 3.3 7.33333 3.3C8.84799 3.3 10.1679 4.14492 10.8468 5.38847C10.0727 6.07673 9.49435 6.98028 9.20557 8.00519C9.13748 8.00175 9.06894 8 9 8C7.24809 8 5.75923 9.12627 5.21798 10.6942C4.08683 9.98706 3.33333 8.73036 3.33333 7.3Z" fill="white"></path>
      <path d="M3.10667 12.46C2.84667 12.72 2.42667 12.72 2.16667 12.46C1.90667 12.2 1.90667 11.7867 2.16 11.52L2.42 11.26C2.68 11 3.1 11 3.36 11.26L3.36667 11.2667C3.62 11.52 3.62667 11.94 3.36667 12.2L3.10667 12.46Z" fill="white"></path>
      <path d="M20 19H7C5.34315 19 4 17.6569 4 16C4 14.6925 4.83649 13.5803 6.00352 13.1695C6.00118 13.1133 6 13.0568 6 13C6 10.7909 7.79086 9 10 9C10.0689 9 10.1375 9.00175 10.2056 9.00519C10.8568 6.69403 12.9806 5 15.5 5C18.5376 5 21 7.46243 21 10.5C21 10.7087 20.9884 10.9147 20.9657 11.1174C22.7083 11.5494 24 13.1238 24 15C24 17.2091 22.2091 19 20 19Z" fill="white"></path>
      <path d="M9.41459 20C9.91327 20 10.2376 20.5248 10.0146 20.9708L8.68541 23.6292C8.57178 23.8564 8.3395 24 8.08541 24C7.58673 24 7.2624 23.4752 7.48541 23.0292L8.81459 20.3708C8.92822 20.1436 9.1605 20 9.41459 20Z" fill="white"></path>
      <path d="M12.4146 20C12.9133 20 13.2376 20.5248 13.0146 20.9708L11.6854 23.6292C11.5718 23.8564 11.3395 24 11.0854 24C10.5867 24 10.2624 23.4752 10.4854 23.0292L11.8146 20.3708C11.9282 20.1436 12.1605 20 12.4146 20Z" fill="white"></path>
      <path d="M18.4146 20C18.1605 20 17.9282 20.1436 17.8146 20.3708L16.4854 23.0292C16.2624 23.4752 16.5867 24 17.0854 24C17.3395 24 17.5718 23.8564 17.6854 23.6292L19.0146 20.9708C19.2376 20.5248 18.9133 20 18.4146 20Z" fill="white"></path>
      <path d="M15.4146 20C15.9133 20 16.2376 20.5248 16.0146 20.9708L14.6854 23.6292C14.5718 23.8564 14.3395 24 14.0854 24C13.5867 24 13.2624 23.4752 13.4854 23.0292L14.8146 20.3708C14.9282 20.1436 15.1605 20 15.4146 20Z" fill="white"></path>
    </g>
    <defs>
      <clipPath id="clip0_2_3066">
        <rect width="24" height="24" fill="white"></rect>
      </clipPath>
    </defs>
  </symbol>
  <symbol fill="none" xmlns="http://www.w3.org/2000/svg" viewBox="0 0 24 24" id="10n">
    <g clip-path="url(#clip0_3_9382)">
      <path d="M4.39616 12.4643C4.58533 12.3444 4.78883 12.245 5.00352 12.1695C5.00118 12.1133 5 12.0568 5 12C5 10.0145 6.44656 8.36695 8.34325 8.05366C7.62087 7.71354 6.94443 7.24452 6.34835 6.64621C4.78655 5.09278 4.10504 2.98608 4.29672 0.957407C4.35351 0.368666 3.51582 -0.262634 2.98339 0.113309C2.66393 0.340293 2.36577 0.595651 2.0818 0.879381C-0.693935 3.64576 -0.693935 8.14289 2.0818 10.9093C2.76537 11.5975 3.5541 12.1159 4.39616 12.4643Z" fill="white"></path>
      <path d="M11.06 5.20828L10.5332 3.4617L12.2425 2.16944L10.0874 2.10949L9.37123 0.111157L8.65511 2.10949L6.49998 2.16944L8.20922 3.4617L7.59443 5.5L9.37123 4.29434L10.9065 5.33612C10.9569 5.2926 11.0081 5.24998 11.06 5.20828Z" fill="white"></path>
      <path d="M17.7157 1.44339L16.6077 2.27602L17.0063 3.59493L15.8578 2.81558L14.7093 3.59493L15.1079 2.27602L14 1.44339L15.3917 1.41008L15.8578 0.111162L16.324 1.41008L17.7157 1.44339Z" fill="white"></path>
      <path d="M20 19H7C5.34315 19 4 17.6569 4 16C4 14.6925 4.83649 13.5803 6.00352 13.1695C6.00118 13.1133 6 13.0568 6 13C6 10.7909 7.79086 9 10 9C10.0689 9 10.1375 9.00175 10.2056 9.00519C10.8568 6.69403 12.9806 5 15.5 5C18.5376 5 21 7.46243 21 10.5C21 10.7087 20.9884 10.9147 20.9657 11.1174C22.7083 11.5494 24 13.1238 24 15C24 17.2091 22.2091 19 20 19Z" fill="white"></path>
      <path d="M9.41459 20C9.91327 20 10.2376 20.5248 10.0146 20.9708L8.68541 23.6292C8.57178 23.8564 8.3395 24 8.08541 24C7.58673 24 7.2624 23.4752 7.48541 23.0292L8.81459 20.3708C8.92822 20.1436 9.1605 20 9.41459 20Z" fill="white"></path>
      <path d="M12.4146 20C12.9133 20 13.2376 20.5248 13.0146 20.9708L11.6854 23.6292C11.5718 23.8564 11.3395 24 11.0854 24C10.5867 24 10.2624 23.4752 10.4854 23.0292L11.8146 20.3708C11.9282 20.1436 12.1605 20 12.4146 20Z" fill="white"></path>
      <path d="M18.4146 20C18.1605 20 17.9282 20.1436 17.8146 20.3708L16.4854 23.0292C16.2624 23.4752 16.5867 24 17.0854 24C17.3395 24 17.5718 23.8564 17.6854 23.6292L19.0146 20.9708C19.2376 20.5248 18.9133 20 18.4146 20Z" fill="white"></path>
      <path d="M15.4146 20C15.9133 20 16.2376 20.5248 16.0146 20.9708L14.6854 23.6292C14.5718 23.8564 14.3395 24 14.0854 24C13.5867 24 13.2624 23.4752 13.4854 23.0292L14.8146 20.3708C14.9282 20.1436 15.1605 20 15.4146 20Z" fill="white"></path>
    </g>
    <defs>
      <clipPath id="clip0_3_9382">
        <rect width="24" height="24" fill="white"></rect>
      </clipPath>
    </defs>
  </symbol>
  <symbol fill="none" xmlns="http://www.w3.org/2000/svg" viewBox="0 0 24 24" id="11d">
    <path d="M15.0089 17H18C20.2091 17 22 15.2091 22 13C22 11.1238 20.7083 9.54938 18.9657 9.11736C18.9884 8.9147 19 8.70871 19 8.5C19 5.46243 16.5376 3 13.5 3C10.9806 3 8.85678 4.69403 8.20557 7.00519C8.13748 7.00174 8.06894 7 8 7C5.79086 7 4 8.79086 4 11C4 11.0568 4.00118 11.1133 4.00352 11.1695C2.83649 11.5803 2 12.6925 2 14C2 15.6569 3.34315 17 5 17H7.84825L12.1318 9.50386C12.6405 8.61351 14 8.97454 14 10V14H15C15.7678 14 16.2492 14.8295 15.8682 15.4961L15.0089 17Z" fill="white"></path>
    <path d="M9 17L13 10V15H15L11 22V17H9Z" fill="white"></path>
  </symbol>
  <symbol fill="none" xmlns="http://www.w3.org/2000/svg" viewBox="0 0 24 24" id="11n">
    <g clip-path="url(#clip0_3_9383)">
      <path d="M4.39616 12.4643C4.58533 12.3444 4.78883 12.245 5.00352 12.1695C5.00118 12.1133 5 12.0568 5 12C5 10.0145 6.44656 8.36695 8.34325 8.05366C7.62087 7.71354 6.94443 7.24452 6.34835 6.64621C4.78655 5.09278 4.10504 2.98608 4.29672 0.957407C4.35351 0.368666 3.51582 -0.262634 2.98339 0.113309C2.66393 0.340293 2.36577 0.595651 2.0818 0.879381C-0.693935 3.64576 -0.693935 8.14289 2.0818 10.9093C2.76537 11.5975 3.5541 12.1159 4.39616 12.4643Z" fill="white"></path>
      <path d="M11.06 5.20828L10.5332 3.4617L12.2425 2.16944L10.0874 2.10949L9.37123 0.111157L8.65511 2.10949L6.49998 2.16944L8.20922 3.4617L7.59443 5.5L9.37123 4.29434L10.9065 5.33612C10.9569 5.2926 11.0081 5.24998 11.06 5.20828Z" fill="white"></path>
      <path d="M17.7157 1.44339L16.6077 2.27602L17.0063 3.59493L15.8578 2.81558L14.7093 3.59493L15.1079 2.27602L14 1.44339L15.3917 1.41008L15.8578 0.111162L16.324 1.41008L17.7157 1.44339Z" fill="white"></path>
      <path d="M20 19H17.0089L17.8682 17.4961C18.2492 16.8295 17.7678 16 17 16H16V12C16 10.9745 14.6405 10.6135 14.1318 11.5039L9.84825 19H7C5.34315 19 4 17.6569 4 16C4 14.6925 4.83649 13.5803 6.00352 13.1695C6.00118 13.1133 6 13.0568 6 13C6 10.7909 7.79086 9 10 9C10.0689 9 10.1375 9.00175 10.2056 9.00519C10.8568 6.69403 12.9806 5 15.5 5C18.5376 5 21 7.46243 21 10.5C21 10.7087 20.9884 10.9147 20.9657 11.1174C22.7083 11.5494 24 13.1238 24 15C24 17.2091 22.2091 19 20 19Z" fill="white"></path>
      <path d="M11 19H13V24L17 17H15V12L11 19Z" fill="white"></path>
    </g>
    <defs>
      <clipPath id="clip0_3_9383">
        <rect width="24" height="24" fill="white"></rect>
      </clipPath>
    </defs>
  </symbol>
  <symbol fill="none" xmlns="http://www.w3.org/2000/svg" viewBox="0 0 24 24" id="13d">
    <path d="M18 17H5C3.34315 17 2 15.6569 2 14C2 12.6925 2.83649 11.5803 4.00352 11.1695C4.00118 11.1133 4 11.0568 4 11C4 8.79086 5.79086 7 8 7C8.06894 7 8.13748 7.00174 8.20557 7.00519C8.85678 4.69403 10.9806 3 13.5 3C16.5376 3 19 5.46243 19 8.5C19 8.70871 18.9884 8.9147 18.9657 9.11736C20.7083 9.54938 22 11.1238 22 13C22 15.2091 20.2091 17 18 17Z" fill="white"></path>
    <path d="M8.44828 22H9.55172L9.44138 20.7778L10.4483 21.4861L11 20.5139L9.89655 20L11 19.4861L10.4483 18.5139L9.44138 19.2222L9.55172 18H8.44828L8.55862 19.2222L7.55172 18.5139L7 19.4861L8.10345 20L7 20.5139L7.55172 21.4861L8.55862 20.7778L8.44828 22Z" fill="white"></path>
    <path d="M15.5517 22H14.4483L14.5586 20.7778L13.5517 21.4861L13 20.5139L14.1034 20L13 19.4861L13.5517 18.5139L14.5586 19.2222L14.4483 18H15.5517L15.4414 19.2222L16.4483 18.5139L17 19.4861L15.8966 20L17 20.5139L16.4483 21.4861L15.4414 20.7778L15.5517 22Z" fill="white"></path>
  </symbol>
  <symbol fill="none" xmlns="http://www.w3.org/2000/svg" viewBox="0 0 24 24" id="13n">
    <g clip-path="url(#clip0_3_9377)">
      <path d="M5.00352 12.1695C4.78883 12.245 4.58533 12.3444 4.39616 12.4643C3.5541 12.1159 2.76537 11.5975 2.0818 10.9093C-0.693935 8.14289 -0.693935 3.64576 2.0818 0.879381C2.36577 0.595651 2.66393 0.340293 2.98339 0.113309C3.51582 -0.262634 4.35351 0.368666 4.29672 0.957407C4.10504 2.98608 4.78655 5.09278 6.34835 6.64621C6.94443 7.24452 7.62087 7.71354 8.34325 8.05366C6.44656 8.36695 5 10.0145 5 12C5 12.0568 5.00118 12.1133 5.00352 12.1695Z" fill="white"></path>
      <path d="M10.5332 3.4617L11.06 5.20828C11.0081 5.24998 10.9569 5.2926 10.9065 5.33612L9.37123 4.29434L7.59443 5.5L8.20922 3.4617L6.49998 2.16944L8.65511 2.10949L9.37123 0.111157L10.0874 2.10949L12.2425 2.16944L10.5332 3.4617Z" fill="white"></path>
      <path d="M16.6077 2.27602L17.7157 1.44339L16.324 1.41008L15.8578 0.111162L15.3917 1.41008L14 1.44339L15.1079 2.27602L14.7093 3.59493L15.8578 2.81558L17.0063 3.59493L16.6077 2.27602Z" fill="white"></path>
      <path d="M7 19H20C22.2091 19 24 17.2091 24 15C24 13.1238 22.7083 11.5494 20.9657 11.1174C20.9884 10.9147 21 10.7087 21 10.5C21 7.46243 18.5376 5 15.5 5C12.9806 5 10.8568 6.69403 10.2056 9.00519C10.1375 9.00175 10.0689 9 10 9C7.79086 9 6 10.7909 6 13C6 13.0568 6.00118 13.1133 6.00352 13.1695C4.83649 13.5803 4 14.6925 4 16C4 17.6569 5.34315 19 7 19Z" fill="white"></path>
      <path d="M10.4483 24H11.5517L11.4414 22.7778L12.4483 23.4861L13 22.5139L11.8966 22L13 21.4861L12.4483 20.5139L11.4414 21.2222L11.5517 20H10.4483L10.5586 21.2222L9.55172 20.5139L9 21.4861L10.1034 22L9 22.5139L9.55172 23.4861L10.5586 22.7778L10.4483 24Z" fill="white"></path>
      <path d="M17.5517 24H16.4483L16.5586 22.7778L15.5517 23.4861L15 22.5139L16.1034 22L15 21.4861L15.5517 20.5139L16.5586 21.2222L16.4483 20H17.5517L17.4414 21.2222L18.4483 20.5139L19 21.4861L17.8966 22L19 22.5139L18.4483 23.4861L17.4414 22.7778L17.5517 24Z" fill="white"></path>
    </g>
    <defs>
      <clipPath id="clip0_3_9377">
        <rect width="24" height="24" fill="white"></rect>
      </clipPath>
    </defs>
  </symbol>
  <symbol fill="none" xmlns="http://www.w3.org/2000/svg" viewBox="0 0 24 24" id="50d">
    <path d="M5 17H18C20.2091 17 22 15.2091 22 13C22 11.1238 20.7083 9.54938 18.9657 9.11736C18.9884 8.9147 19 8.70871 19 8.5C19 5.46243 16.5376 3 13.5 3C10.9806 3 8.85678 4.69403 8.20557 7.00519C8.13748 7.00174 8.06894 7 8 7C5.79086 7 4 8.79086 4 11C4 11.0568 4.00118 11.1133 4.00352 11.1695C2.83649 11.5803 2 12.6925 2 14C2 15.6569 3.34315 17 5 17Z" fill="white"></path>
    <path d="M5 18C4.72386 18 4.5 18.2239 4.5 18.5C4.5 18.7761 4.72386 19 5 19H19C19.2761 19 19.5 18.7761 19.5 18.5C19.5 18.2239 19.2761 18 19 18H5Z" fill="white"></path>
    <path d="M5 20C4.72386 20 4.5 20.2239 4.5 20.5C4.5 20.7761 4.72386 21 5 21H19C19.2761 21 19.5 20.7761 19.5 20.5C19.5 20.2239 19.2761 20 19 20H5Z" fill="white"></path>
  </symbol>
  <symbol fill="none" xmlns="http://www.w3.org/2000/svg" viewBox="0 0 24 24" id="50n">
    <path d="M5 17H18C20.2091 17 22 15.2091 22 13C22 11.1238 20.7083 9.54938 18.9657 9.11736C18.9884 8.9147 19 8.70871 19 8.5C19 5.46243 16.5376 3 13.5 3C10.9806 3 8.85678 4.69403 8.20557 7.00519C8.13748 7.00174 8.06894 7 8 7C5.79086 7 4 8.79086 4 11C4 11.0568 4.00118 11.1133 4.00352 11.1695C2.83649 11.5803 2 12.6925 2 14C2 15.6569 3.34315 17 5 17Z" fill="white"></path>
    <path d="M5 18C4.72386 18 4.5 18.2239 4.5 18.5C4.5 18.7761 4.72386 19 5 19H19C19.2761 19 19.5 18.7761 19.5 18.5C19.5 18.2239 19.2761 18 19 18H5Z" fill="white"></path>
    <path d="M5 20C4.72386 20 4.5 20.2239 4.5 20.5C4.5 20.7761 4.72386 21 5 21H19C19.2761 21 19.5 20.7761 19.5 20.5C19.5 20.2239 19.2761 20 19 20H5Z" fill="white"></path>
  </symbol>
  <symbol fill="none" xmlns="http://www.w3.org/2000/svg" viewBox="0 0 25 26" id="search">
    <path d="M24.1239 24.7031C24.8077 24.0075 24.8077 22.8922 24.1239 22.1965L18.7478 16.7278C19.9906 14.989 20.7254 12.8505 20.7254 10.5408C20.7254 4.72875 16.0768 0 10.3622 0C4.6486 0 0 4.72875 0 10.5408C0 16.354 4.6486 21.0817 10.3622 21.0817C12.5283 21.0817 14.5401 20.4024 16.2057 19.2422L21.5741 24.7031C22.2746 25.4158 23.4233 25.4158 24.1239 24.7031ZM3.03943 10.5408C3.03943 6.43283 6.32487 3.09075 10.3632 3.09075C14.4016 3.09075 17.6871 6.43283 17.6871 10.5408C17.6871 14.6488 14.4016 17.9909 10.3632 17.9909C6.3238 17.9909 3.03943 14.6488 3.03943 10.5408Z" fill="white"></path>
  </symbol>
  <symbol xmlns="http://www.w3.org/2000/svg" xmlns:xlink="http://www.w3.org/1999/xlink" aria-hidden="true" role="img" preserveAspectRatio="xMidYMid meet" viewBox="0 0 64 64" id="flag">
    <path d="M32 62c16.6 0 30-13.4 30-30H2c0 16.6 13.4 30 30 30z" fill="#ffe62e"></path>
    <path d="M32 2C15.4 2 2 15.4 2 32h60C62 15.4 48.6 2 32 2z" fill="#428bc1"></path>
  </symbol>
  <symbol xmlns="http://www.w3.org/2000/svg" viewBox="0 0 24 24" id="close">
    <path fill-rule="evenodd" clip-rule="evenodd" d="M19.207 6.207a1 1 0 0 0-1.414-1.414L12 10.586 6.207 4.793a1 1 0 0 0-1.414 1.414L10.586 12l-5.793 5.793a1 1 0 1 0 1.414 1.414L12 13.414l5.793 5.793a1 1 0 0 0 1.414-1.414L13.414 12l5.793-5.793z"></path>
  </symbol>
  <symbol xmlns="http://www.w3.org/2000/svg" viewBox="0 0 24 24" id="chevron-down">
    <path fill-rule="evenodd" clip-rule="evenodd" d="M4.29289 8.29289C4.68342 7.90237 5.31658 7.90237 5.70711 8.29289L12 14.5858L18.2929 8.29289C18.6834 7.90237 19.3166 7.90237 19.7071 8.29289C20.0976 8.68342 20.0976 9.31658 19.7071 9.70711L12.7071 16.7071C12.3166 17.0976 11.6834 17.0976 11.2929 16.7071L4.29289 9.70711C3.90237 9.31658 3.90237 8.68342 4.29289 8.29289Z"></path>
  </symbol>
  <symbol xmlns="http://www.w3.org/2000/svg" viewBox="0 0 24 24" id="chevron-up">
    <path fill-rule="evenodd" clip-rule="evenodd" d="M12 7C12.2652 7 12.5196 7.10536 12.7071 7.29289L19.7071 14.2929C20.0976 14.6834 20.0976 15.3166 19.7071 15.7071C19.3166 16.0976 18.6834 16.0976 18.2929 15.7071L12 9.41421L5.70711 15.7071C5.31658 16.0976 4.68342 16.0976 4.29289 15.7071C3.90237 15.3166 3.90237 14.6834 4.29289 14.2929L11.2929 7.29289C11.4804 7.10536 11.7348 7 12 7Z"></path>
  </symbol>
  <symbol xmlns="http://www.w3.org/2000/svg" viewBox="0 0 24 24" id="refresh">
    <path d="M7 14C7.50963 15.0039 8.37532 15.8345 9.46665 16.3667C10.558 16.8989 11.8158 17.1038 13.0506 16.9505C15.0687 16.7 16.4753 15.3884 18 14.1814M18 17V14H15M17 10C16.4904 8.99609 15.6247 8.16548 14.5334 7.63331C13.442 7.10113 12.1842 6.89624 10.9494 7.04949C8.93127 7.29995 7.52468 8.61162 6 9.81861M6 7V10H9" stroke-width="1.5" stroke-linecap="round" stroke-linejoin="round"></path>
  </symbol>
  <symbol fill="none" xmlns="http://www.w3.org/2000/svg" viewBox="0 0 25 25" id="humidity">
    <path d="M15.6319 3.39175C17.5503 2.97643 19.9303 2.99719 23.1691 3.80487C23.7272 3.94405 24.0665 4.50824 23.927 5.06501C23.7875 5.62178 23.222 5.96031 22.6639 5.82114C19.6527 5.07023 17.6057 5.09111 16.0737 5.42278C14.537 5.75546 13.4323 6.41528 12.262 7.12878L12.1744 7.18223C11.0462 7.87047 9.79703 8.63259 8.14659 8.90697C6.43473 9.19154 4.41252 8.93995 1.69669 7.85611C1.16257 7.64296 0.902782 7.0382 1.11646 6.50534C1.33012 5.97249 1.93634 5.71332 2.47047 5.92649C4.96286 6.92115 6.5864 7.05936 7.80416 6.85693C9.0405 6.65141 9.98305 6.08246 11.1756 5.35541C12.349 4.64005 13.7181 3.80604 15.6319 3.39175Z" fill="white"></path>
    <path d="M23.1691 7.96148C19.9303 7.1538 17.5503 7.13304 15.6319 7.54835C13.7181 7.96265 12.349 8.79665 11.1756 9.51201C9.98305 10.2391 9.0405 10.808 7.80416 11.0135C6.5864 11.2159 4.96286 11.0777 2.47047 10.0831C1.93634 9.86994 1.33012 10.1291 1.11646 10.662C0.902782 11.1948 1.16257 11.7996 1.69669 12.0127C4.41252 13.0966 6.43473 13.3481 8.14659 13.0635C9.79703 12.7892 11.0462 12.0271 12.1744 11.3389L12.262 11.2854C13.4323 10.5719 14.537 9.91206 16.0737 9.57938C17.6057 9.24772 19.6527 9.22684 22.6639 9.97774C23.222 10.1169 23.7875 9.77839 23.927 9.22161C24.0665 8.66484 23.7272 8.10066 23.1691 7.96148Z" fill="white"></path>
    <path fill-rule="evenodd" clip-rule="evenodd" d="M19.7915 10.4444C19.4298 10.4444 19.1284 10.6311 18.9181 10.9137C18.8443 11.0135 18.6735 11.2471 18.4468 11.574C18.1451 12.0086 17.7414 12.6127 17.3358 13.287C16.9323 13.9579 16.5159 14.7167 16.1974 15.458C15.8924 16.168 15.6239 16.939 15.6249 17.7205C15.6256 17.9399 15.6519 18.1603 15.6879 18.3762C15.7481 18.7367 15.8704 19.2329 16.1254 19.7418C16.3825 20.2548 16.7845 20.7994 17.407 21.2133C18.036 21.6317 18.8279 21.875 19.7915 21.875C20.755 21.875 21.5469 21.6317 22.1758 21.2133C22.7983 20.7994 23.2004 20.2548 23.4575 19.7419C23.7125 19.2329 23.8349 18.7367 23.8951 18.3764C23.9313 18.1601 23.9578 17.9391 23.9581 17.7195C23.9584 16.9379 23.6906 16.1681 23.3855 15.458C23.0671 14.7167 22.6507 13.9579 22.2472 13.287C21.8417 12.6127 21.4378 12.0086 21.1361 11.574C20.9094 11.2471 20.7385 11.0135 20.6648 10.9137C20.4545 10.6311 20.153 10.4444 19.7915 10.4444ZM21.4707 16.2768C21.2033 15.6543 20.8384 14.9842 20.4607 14.3562C20.231 13.9744 20.0007 13.6148 19.7915 13.2994C19.5822 13.6148 19.3519 13.9744 19.1222 14.3562C18.7446 14.9842 18.3797 15.6543 18.1123 16.2768L18.0971 16.312C17.913 16.74 17.6955 17.246 17.7084 17.7189C17.7209 18.0928 17.8217 18.4789 17.9889 18.8124C18.1223 19.0789 18.3063 19.3136 18.5626 19.4842C18.8125 19.6503 19.1925 19.7967 19.7915 19.7967C20.3904 19.7967 20.7704 19.6503 21.0203 19.4842C21.2767 19.3136 21.4606 19.0787 21.5942 18.8124C21.7614 18.4789 21.8621 18.0928 21.8746 17.7187C21.8876 17.2461 21.67 16.7401 21.4859 16.3122L21.4707 16.2768Z" fill="white"></path>
    <path d="M14.7183 12.0112C15.5103 11.7549 16.1175 12.5792 15.7451 13.3221C15.575 13.6616 15.3836 13.9504 15.0032 14.0848C13.9854 14.4444 13.1423 14.9507 12.262 15.4874L12.1744 15.5408C11.0463 16.2291 9.79704 16.9911 8.1466 17.2655C6.43474 17.5501 4.41254 17.2985 1.69671 16.2147C1.16258 16.0016 0.9028 15.3968 1.11647 14.864C1.33015 14.331 1.93635 14.0719 2.47049 14.2851C4.96288 15.2797 6.58643 15.4179 7.80418 15.2155C9.04051 15.01 9.98306 14.441 11.1756 13.714C12.309 13.023 13.4753 12.4136 14.7183 12.0112Z" fill="white"></path>
  </symbol>
  <symbol fill="none" xmlns="http://www.w3.org/2000/svg" viewBox="0 0 25 25" id="wind">
    <path d="M18.4375 8.02083C18.7424 7.72725 19.1143 7.51241 19.5209 7.39491C19.9275 7.27742 20.3567 7.26082 20.7712 7.34654C21.1857 7.43226 21.573 7.61772 21.8997 7.88687C22.2264 8.15601 22.4825 8.50073 22.646 8.89117C22.8094 9.28161 22.8752 9.70601 22.8377 10.1276C22.8002 10.5492 22.6604 10.9553 22.4306 11.3108C22.2008 11.6662 21.8878 11.9603 21.5187 12.1675C21.1496 12.3747 20.7356 12.4888 20.3125 12.5H2.08333" stroke="white" stroke-width="2" stroke-linecap="round" stroke-linejoin="round"></path>
    <path d="M10 4.79167C10.2413 4.54553 10.54 4.36311 10.8691 4.26078C11.1983 4.15845 11.5477 4.1394 11.8861 4.20534C12.2244 4.27128 12.5411 4.42014 12.8078 4.63858C13.0745 4.85703 13.2828 5.13823 13.414 5.45698C13.5453 5.77573 13.5954 6.12206 13.5598 6.46494C13.5243 6.80782 13.4042 7.13652 13.2104 7.42158C13.0166 7.70665 12.7551 7.93916 12.4493 8.09829C12.1435 8.25741 11.803 8.33818 11.4583 8.33333H2.08333" stroke="white" stroke-width="2" stroke-linecap="round" stroke-linejoin="round"></path>
    <path d="M13.125 20.2083C13.3663 20.4545 13.665 20.6369 13.9941 20.7392C14.3233 20.8415 14.6727 20.8606 15.0111 20.7947C15.3494 20.7287 15.6661 20.5799 15.9328 20.3614C16.1995 20.143 16.4078 19.8618 16.539 19.543C16.6703 19.2243 16.7204 18.8779 16.6848 18.5351C16.6493 18.1922 16.5292 17.8635 16.3354 17.5784C16.1416 17.2934 15.8801 17.0608 15.5743 16.9017C15.2685 16.7426 14.928 16.6618 14.5833 16.6667H2.08333" stroke="white" stroke-width="2" stroke-linecap="round" stroke-linejoin="round"></path>
  </symbol>
  <symbol fill="none" xmlns="http://www.w3.org/2000/svg" viewBox="0 0 24 24" id="location">
    <path d="M12 21C15.5 17.4 19 14.1764 19 10.2C19 6.22355 15.866 3 12 3C8.13401 3 5 6.22355 5 10.2C5 14.1764 8.5 17.4 12 21Z" stroke="white" stroke-width="2" stroke-linecap="round" stroke-linejoin="round"></path>
    <path d="M12 13C13.6569 13 15 11.6569 15 10C15 8.34315 13.6569 7 12 7C10.3431 7 9 8.34315 9 10C9 11.6569 10.3431 13 12 13Z" stroke="white" stroke-width="2" stroke-linecap="round" stroke-linejoin="round"></path>
  </symbol>
  <symbol xmlns="http://www.w3.org/2000/svg" viewBox="0 0 12 24" id="temp">
    <path d="M6.98427 15.5781V10.3636C6.98427 10.0743 6.87917 9.7968 6.69209 9.59222C6.505 9.38763 6.25127 9.2727 5.98669 9.2727C5.72212 9.2727 5.46838 9.38763 5.2813 9.59222C5.09422 9.7968 4.98912 10.0743 4.98912 10.3636V15.5781C4.68758 15.7685 4.43684 16.0419 4.26184 16.371C4.08683 16.7002 3.99365 17.0737 3.99154 17.4545C3.99154 18.0331 4.20175 18.5881 4.57591 18.9973C4.95007 19.4064 5.45755 19.6363 5.98669 19.6363C6.51584 19.6363 7.02331 19.4064 7.39748 18.9973C7.77164 18.5881 7.98184 18.0331 7.98184 17.4545C7.97974 17.0737 7.88656 16.7002 7.71155 16.371C7.53654 16.0419 7.28581 15.7685 6.98427 15.5781ZM10.4758 13.0909V4.90908C10.4758 3.60711 10.0028 2.35847 9.16096 1.43784C8.31909 0.517205 7.17727 0 5.98669 0C4.79611 0 3.6543 0.517205 2.81243 1.43784C1.97056 2.35847 1.49761 3.60711 1.49761 4.90908V13.0909C0.808126 13.9453 0.334563 14.9817 0.12376 16.0977C-0.0870434 17.2136 -0.0277813 18.3704 0.295684 19.4536C0.619149 20.5369 1.19561 21.509 1.96804 22.2738C2.74048 23.0387 3.68212 23.5697 4.69982 23.8145C5.12258 23.9199 5.5534 23.9819 5.98669 23.9999C7.1445 24.0058 8.27903 23.6444 9.25277 22.9594C10.2265 22.2744 10.9977 21.2952 11.4728 20.1406C11.9479 18.986 12.1066 17.7054 11.9297 16.4541C11.7527 15.2029 11.2477 14.0346 10.4758 13.0909ZM8.48063 20.8036C7.68691 21.5732 6.64613 21.9665 5.58725 21.8969C4.52837 21.8273 3.53812 21.3006 2.83436 20.4327C2.13059 19.5647 1.77096 18.4265 1.83456 17.2686C1.89817 16.1106 2.37981 15.0277 3.17353 14.2581C3.26779 14.1571 3.34278 14.0366 3.39415 13.9037C3.44552 13.7707 3.47226 13.6279 3.4728 13.4836V4.90908C3.4728 4.18576 3.73556 3.49207 4.20326 2.98061C4.67097 2.46915 5.30531 2.18181 5.96674 2.18181C6.62817 2.18181 7.26252 2.46915 7.73022 2.98061C8.19792 3.49207 8.46068 4.18576 8.46068 4.90908V13.5709C8.46123 13.7152 8.48796 13.858 8.53933 13.9909C8.5907 14.1239 8.66569 14.2444 8.75995 14.3454C9.16771 14.7762 9.48685 15.297 9.6961 15.8733C9.90535 16.4495 9.99991 17.0679 9.97348 17.6872C9.94705 18.3065 9.80024 18.9126 9.54282 19.465C9.28541 20.0174 8.9233 20.5035 8.48063 20.8908V20.8036Z"></path>
  </symbol>
  <symbol fill="none" xmlns="http://www.w3.org/2000/svg" viewBox="0 0 73 39" id="clock">
    <path d="M71.4225 1.46155L37.4994 36.1923" stroke="#885FFC" stroke-width="2" stroke-linecap="round"></path>
    <path d="M2.76855 36.1923L37.036 36.1923" stroke="#828282" stroke-width="4" stroke-linecap="round"></path>
    <path d="M31.8456 16L37.5038 36.1911" stroke="#EEECEC" stroke-width="4" stroke-linecap="round"></path>
  </symbol>
  <symbol xmlns="http://www.w3.org/2000/svg" viewBox="0 0 1024 1024" id="more">
    <path fill-rule="evenodd" clip-rule="evenodd" d="M384 512c0 28.3-22.9 51.2-51.2 51.2s-51.2-22.9-51.2-51.2 22.9-51.2 51.2-51.2S384 483.7 384 512zm128-51.2c-28.3 0-51.2 22.9-51.2 51.2s22.9 51.2 51.2 51.2 51.2-22.9 51.2-51.2-22.9-51.2-51.2-51.2zm179.2 0c-28.3 0-51.2 22.9-51.2 51.2s22.9 51.2 51.2 51.2 51.2-22.9 51.2-51.2-22.9-51.2-51.2-51.2z"></path>
  </symbol>
</svg>